<?xml version="1.0" encoding="UTF-8" standalone="no"?>
<!-- Created with Inkscape (http://www.inkscape.org/) -->

<svg
   xmlns:dc="http://purl.org/dc/elements/1.1/"
   xmlns:cc="http://creativecommons.org/ns#"
   xmlns:rdf="http://www.w3.org/1999/02/22-rdf-syntax-ns#"
   xmlns:svg="http://www.w3.org/2000/svg"
   xmlns="http://www.w3.org/2000/svg"
   xmlns:sodipodi="http://sodipodi.sourceforge.net/DTD/sodipodi-0.dtd"
   xmlns:inkscape="http://www.inkscape.org/namespaces/inkscape"
   width="450"
   height="333"
   id="svg2"
   version="1.1"
   inkscape:version="0.48.4 r9939"
   sodipodi:docname="New document 1">
  <defs
     id="defs4" />
  <sodipodi:namedview
     id="base"
     pagecolor="#ffffff"
     bordercolor="#666666"
     borderopacity="1.0"
     inkscape:pageopacity="0.0"
     inkscape:pageshadow="2"
     inkscape:zoom="1"
     inkscape:cx="33.634199"
     inkscape:cy="160"
     inkscape:document-units="cm"
     inkscape:current-layer="layer1"
     showgrid="false"
     units="in"
     inkscape:window-width="1280"
     inkscape:window-height="745"
     inkscape:window-x="-2"
     inkscape:window-y="-3"
     inkscape:window-maximized="1" />
  <metadata
     id="metadata7">
    <rdf:RDF>
      <cc:Work
         rdf:about="">
        <dc:format>image/svg+xml</dc:format>
        <dc:type
           rdf:resource="http://purl.org/dc/dcmitype/StillImage" />
        <dc:title></dc:title>
      </cc:Work>
    </rdf:RDF>
  </metadata>
  <g
     inkscape:label="Layer 1"
     inkscape:groupmode="layer"
     id="layer1"
     transform="translate(0,-719.35973)">
    <g
       id="g3220"
       transform="matrix(0.09743816,0,0,0.09743816,63.5625,863.6097)">
      <path
         id="path3146"
         d="m 0,0 1415,0 0,1500 L 0,1500 0,0 m 500.76,11.89 c -9.19,2.92 -13.21,13.18 -21.97,16.7 -16.86,3.89 -32.02,-8.39 -48.74,-7.31 -4.4,0.19 -8.34,2.38 -11.75,5.01 0.05,4.73 -0.37,9.5 0.19,14.21 7.31,4.99 17.52,-0.31 24.5,5.53 -44.81,37.99 -93.27,72.27 -132.39,116.5 -13.03,14.95 -22.48,32.61 -35.43,47.61 -8.7,9.91 -20.32,16.42 -30.77,24.22 -7.79,5.77 -15.37,12.37 -19.97,21.06 -7.11,13.53 -8.32,29.25 -15.22,42.87 -1.87,3.56 -4.05,7.12 -7.3,9.6 -4.9,3.78 -10.7,6.41 -14.85,11.12 3.42,8.2 4.66,17.39 2.85,26.13 -3.54,19.04 -18.24,33.71 -21.93,52.7 -2.21,9.31 1.96,18.97 -0.92,28.2 -2.73,8.35 -9.32,14.6 -15.66,20.34 -5.09,4.24 -9.58,9.13 -14.73,13.29 -4.88,4.44 -10.21,8.46 -14.29,13.71 -3.48,4.05 -6.31,9.06 -6.12,14.57 0.18,4.89 1.01,10.2 -1.71,14.61 -7.69,13.11 -23.63,18.55 -31.4,31.61 -6.26,12.72 -4.19,27.8 -10.45,40.53 -4.02,7.68 -12.52,11.93 -16.07,19.95 -1.96,5.01 -0.9,10.57 -2.35,15.7 -2.57,9.08 -7.07,17.41 -11.03,25.93 -6.31,12.81 -9.13,26.99 -10.98,41.05 -2.79,23.11 -2.57,46.45 -1.74,69.67 0.87,25.34 3.12,50.69 1.29,76.04 -0.93,24.95 -5.39,49.88 -2.76,74.85 2.51,33.33 4.63,66.81 2.37,100.21 -2.66,36.37 -6.91,72.59 -10.56,108.87 -0.29,2.77 -0.38,5.61 -1.27,8.28 -4.47,-16.51 -0.19,-33.57 -0.9,-50.33 -0.38,-7.5 -1.65,-15.78 -7.45,-21.12 -1.84,3.74 -3.85,7.42 -5.16,11.41 -4.5,12.79 -4,26.78 -1.4,39.93 3.05,16.09 8.65,31.61 11.08,47.83 1.91,9.68 -1.7,19.81 1.93,29.26 7.18,21.1 27.03,34.92 34.21,56.07 1.54,5.2 1.64,10.69 2.68,16 1.19,6.35 4.26,12.13 7.37,17.72 5.45,9.46 11.91,18.32 16.98,28.01 14.63,28 27.82,56.75 40.15,85.83 4.14,9.57 7.86,19.48 14.13,27.92 4.23,5.68 9.83,10.71 16.76,12.72 2.96,-1.93 3.91,-6.12 4.49,-9.46 0.32,-7.78 -5.49,-13.77 -10.35,-19.12 -4.76,-5.37 -10.42,-11.28 -10.4,-18.94 -0.13,-4.44 2.73,-8 4.3,-11.88 -16.24,-34.19 -28.77,-69.95 -41.54,-105.53 -6.19,-17.82 -13.26,-35.34 -18.66,-53.43 -3.05,-9.37 -5.95,-19.07 -11.8,-27.15 -6.44,-8.57 -17.27,-11.88 -24.72,-19.31 -3.28,-3.21 -4.94,-7.61 -6.12,-11.94 -2.85,-10.68 -3.19,-21.82 -2.87,-32.81 0.74,-15.28 2.89,-30.59 7.42,-45.23 2.2,-7.15 7.99,-12.35 10.9,-19.12 2.41,-7.25 3.38,-14.9 3.99,-22.49 1.62,-25.11 -1.53,-50.15 -2.95,-75.19 -2.67,-35.12 -9.03,-70.53 -3.58,-105.7 4.01,-26.63 14.1,-51.73 21.59,-77.46 5.26,-18.04 8.59,-36.75 8.34,-55.58 3.67,-3.64 6.26,-8.23 8.05,-13.04 6.34,-17.13 4.7,-36.23 12.07,-53.05 5.59,-9.79 16.82,-14.6 22.8,-24.07 4.15,-6.72 -1.44,-14.4 0.43,-21.52 2.47,-9.69 9.03,-17.73 11.68,-27.37 2.76,-9.79 1.21,-20.13 3.16,-30.04 1.76,-8.02 7.37,-14.33 11.96,-20.88 4.47,-6.01 7.35,-12.98 10.2,-19.85 9.93,-24.42 14.79,-50.9 27.99,-73.96 1.04,-1.57 1.75,-3.64 3.64,-4.36 3.82,-1.62 8.15,-1.48 11.94,-3.19 1.3,-0.38 1.6,-1.8 2.03,-2.88 2.37,-7.4 5.79,-14.45 9.97,-20.98 12.41,-19.52 31.09,-34.18 42.86,-54.16 6.3,-10.31 10.18,-21.99 11.84,-33.93 -5.72,-2.6 -12.4,-3.3 -18.5,-1.71 -1.63,0.22 -2.22,1.85 -2.97,3.08 -7.85,14.84 -11.92,31.53 -21.23,45.62 -4.39,6.61 -10.69,12.85 -18.8,14.22 1.23,-14.77 4.67,-29.44 11.05,-42.86 10.14,-21.64 28.65,-38.51 49.88,-49.04 1.44,-0.85 3.26,-1.31 4.31,-2.69 0.37,-4.99 -2.32,-9.55 -2.61,-14.46 -0.16,-2.25 1.85,-3.57 3.32,-4.89 1.55,2 2.84,4.3 3.16,6.85 1.35,8.52 -2.22,16.88 -1.53,25.39 5.1,-6.11 8.38,-13.52 10.61,-21.1 4.18,-14.39 5.77,-29.36 8.99,-43.97 16.27,-8.96 30.86,-21.6 40.32,-37.72 1.46,-2.88 -0.81,-5.62 -3.08,-7.17 -2.06,-1.4 -4.14,-4.53 -1.81,-6.66 5.42,-6.47 7.37,-14.99 12.28,-21.78 3.28,-2.2 7.18,-3.38 10.6,-5.41 29.29,-15.54 50.73,-41.99 79.1,-58.88 13.21,-7.97 27.89,-13.5 43.12,-16.04 0.17,6.07 2.7,12.18 7.58,15.95 8.92,7.09 20.88,8.33 30.2,14.74 5.1,3.5 8.83,9.35 8.84,15.64 -0.77,2.31 -3.5,3.25 -5.62,3.94 -9.32,1.81 -18.95,-1.43 -28.23,0.75 -3.82,0.83 -6.15,4.34 -6.69,8.02 24.39,4.45 49.38,5.62 74.06,3.37 14.67,-1.46 27.36,-10.57 42.12,-11.49 9.99,-0.98 20.01,0.3 29.98,0.99 12.6,1.25 25.27,0.81 37.91,0.89 20.73,-0.52 41.84,-0.68 61.92,-6.49 10.09,-2.66 17.45,-11.09 27.6,-13.61 24.19,-6.58 49.53,-7.46 74.45,-6.62 27.35,1.07 54.59,4.39 81.45,9.57 19.78,3.79 39.6,7.41 59.16,12.21 14.01,3.57 27.97,7.68 41.11,13.78 12.07,5.69 23.89,13.31 31.23,24.75 23.54,32.31 51.24,61.56 82,87.09 7.94,6.97 16.65,14.25 20.17,24.58 2.56,7.11 -0.42,14.78 -5.17,20.22 -1.97,1.66 0.15,3.53 1.1,5.07 5.23,7.54 10.43,15.88 18.93,20.09 6.15,3.12 13.3,1.71 19.69,0.24 24.72,26.07 45.37,55.77 71.21,80.81 7.06,7 14.45,13.78 22.86,19.14 7.01,4.58 14.33,8.77 20.63,14.35 7.7,7.18 12.78,16.74 16.39,26.52 7.69,21.79 8.82,45.11 10.57,67.95 1.56,19.97 2.37,40.22 7,59.77 3.45,1.29 7.22,2.18 9.95,4.85 4.61,4.28 5.7,10.84 6.43,16.8 1.1,9.86 1.54,20.3 6.79,29.04 3.69,6.82 9.28,12.55 12.01,19.89 3.88,12.8 3.82,26.34 3.41,39.58 -1.33,26.04 -5.88,51.88 -5.65,78 0.26,15.45 2.13,30.81 4.39,46.07 3.03,20.84 6.97,41.72 6.6,62.86 -0.34,10.25 -1.7,20.56 -5.06,30.29 -2.82,7.83 -9.8,13.07 -13.55,20.35 -2.99,7.03 -2.57,14.9 -2.61,22.39 0.35,10.61 -2.16,21 -4.59,31.24 -10.52,43.53 -31.55,83.56 -43.48,126.65 -5.15,18.12 -8.27,36.79 -9.42,55.58 -3.27,4.37 -8.2,7.18 -11.52,11.53 -3.92,5.09 -5.11,11.71 -4.78,18.01 -0.05,8.63 2,18.36 -3.32,25.93 -5.42,7.47 -12.69,13.32 -19.57,19.38 -8,6.61 -15.36,13.97 -22.28,21.69 -10.78,12.18 -18.54,27.24 -20.75,43.45 -26.59,17.6 -53.44,35.16 -82.66,48.14 -19.38,8.66 -39.73,15.19 -60.59,19.16 -1.16,0.1 -2.09,0.61 -2.78,1.54 -4.41,4.94 -10.17,8.42 -14.71,13.24 -4.65,4.69 -6.72,11.31 -6.66,17.82 12.41,-1.55 24.47,-5.37 35.77,-10.69 17.1,-7.94 32.56,-18.85 49.06,-27.88 16.06,-9.01 33.6,-15.71 51.95,-17.99 2.38,-4.45 5.68,-8.4 9.76,-11.38 8.53,-6.29 19,-9.2 27.53,-15.49 7.14,-4.93 12.05,-12.36 15.94,-19.97 6.74,-12.97 10.69,-27.53 19.98,-39.06 5.29,-6.4 12.97,-11.77 21.49,-11.95 1.13,17.16 0.81,34.47 -2.04,51.47 -3.72,23.62 -11.89,46.32 -22.1,67.87 -7.43,16.05 -16.18,31.44 -23.95,47.32 9.95,-1.04 19.9,-5.06 26.67,-12.63 6.6,-6.99 10.19,-16.18 12.88,-25.25 5.58,-19.81 7.64,-40.56 15.02,-59.87 6.82,-18.62 15.91,-36.53 20.01,-56.05 2.57,-12.13 2.41,-24.76 -0.28,-36.85 -0.6,-1.8 1.26,-3 2.24,-4.19 5.63,-5.88 14.25,-7.91 19.46,-14.23 1.64,-11.75 4.72,-23.36 10.16,-33.95 9.55,-19.6 25.06,-35.35 36.19,-53.96 9.16,-14.92 14.59,-32.13 15.33,-49.63 -0.06,-7.62 -2.61,-15.17 -1.4,-22.78 1.86,-7.45 10.08,-10.89 12.53,-18.07 3.15,-9.07 4.1,-18.71 5.1,-28.21 2.06,-24.32 4.62,-48.6 5.98,-72.98 1.67,-27.96 2.63,-55.96 3.06,-83.96 0.77,-26.66 0.26,-53.33 0.77,-79.99 -0.37,-9.67 -0.25,-19.34 -0.26,-29.01 0.14,-25 -0.29,-50.02 0.26,-75.01 0.67,-25.65 2.38,-51.3 1.31,-76.95 -0.99,-19.27 -2.85,-39.43 -12.66,-56.49 -0.75,3.62 -0.94,7.32 -1.28,10.99 -2.39,27.43 -3.74,54.94 -4.38,82.46 -0.82,27.32 -0.39,54.66 -0.49,82 0.68,81.54 3.91,163.1 0.99,244.64 -4.21,3.26 -7.4,7.7 -9.04,12.77 -4.13,12.07 -3.72,25.08 -3.16,37.66 0.06,4.26 1.13,8.56 0.73,12.81 -12.18,19.45 -15.37,42.62 -19.71,64.72 -3.61,18.36 -7.07,37.4 -17.15,53.5 -5.44,8.57 -13.47,15.55 -23,19.16 -2.58,18.97 -10.52,36.9 -20.7,52.95 -0.67,-22.59 5.36,-44.64 13.03,-65.67 7.97,-21.81 14.75,-44.61 13.98,-68.08 9.75,-4.47 17.04,-13.22 20.77,-23.17 5.83,-15.02 6.81,-31.3 8.24,-47.19 1.87,-21.33 2.96,-43.53 12.55,-63.08 3.12,-6.84 10.44,-10.91 12.72,-18.19 1.4,-9.89 -0.36,-19.88 -0.25,-29.81 1.35,-28.65 1.26,-57.35 0.49,-86.02 -0.32,-24.68 -2.69,-49.32 -1.74,-74.01 0.33,-11.67 0.9,-23.33 1.24,-34.99 0.29,-11.66 0.51,-23.44 -1.46,-34.97 -1.94,-10.81 -11.32,-17.86 -15.53,-27.6 -3.74,-8.53 1.3,-17.61 -0.15,-26.43 -1.99,-12.15 -9.27,-22.46 -15.62,-32.7 -3.81,-6.32 -8.07,-12.81 -8.96,-20.3 -0.59,-6.58 4.33,-12.35 10.14,-14.75 3.02,7.6 0.85,15.97 3.01,23.72 0.91,3.26 4.36,6.62 7.92,5.4 4.81,-4.67 8.73,-10.66 9.79,-17.39 1.04,-5.78 -0.36,-11.67 -2.4,-17.07 -4.63,-11.69 -12.27,-22.09 -15.5,-34.33 -1.52,-5.4 -0.87,-11.49 -3.96,-16.37 -5.57,-7.64 -15.93,-9.85 -21.44,-17.55 -3.29,-5.61 -4.34,-12.24 -4.49,-18.66 0,-13.2 3.95,-25.93 5.65,-38.93 1.52,-10.99 1.24,-22.59 -3.42,-32.84 -3.01,1.4 -6.05,3.25 -7.43,6.43 -3.33,7.01 -1.99,15.03 -1.32,22.46 0.81,8.75 2.39,18.05 -1.23,26.4 -12.04,-9.74 -22.75,-21.03 -32.89,-32.72 -24.58,-28.48 -44.76,-60.31 -66.42,-90.97 5.78,-2.27 12.06,-2.82 18.23,-2.66 13.79,0.5 27.16,4.2 40.72,6.37 8.23,1.24 16.78,2.17 24.98,0.29 7.64,-1.76 13.85,-7.6 16.68,-14.82 -2.89,-3.26 -7.73,-4.3 -11.82,-5.53 -26.02,-5.69 -53.09,3.41 -78.95,-3.54 0.41,-4.83 5.86,-7.98 5.14,-13.3 -10.59,-2.1 -21.5,-1.3 -32.11,0.14 -9.19,1.12 -18.19,3.62 -27.44,4.21 -2.12,-6.67 -5.5,-12.92 -9.78,-18.44 -12.49,-16.29 -31.08,-26.18 -45.07,-40.95 -8.86,-9.17 -15.43,-20.82 -17.42,-33.49 -6.78,-1.99 -13.4,-4.74 -19.13,-8.92 -12.36,-8.67 -20.82,-21.44 -29.55,-33.47 -7.32,-10.14 -15.21,-20.52 -26.45,-26.56 -15.49,-8.31 -32.71,-12.49 -49.38,-17.74 -7.16,-2.01 -13.66,-5.84 -20.87,-7.68 -4.75,-1.2 -9.64,-0.23 -14.39,0.42 -11.76,1.96 -23.41,-2.44 -33.75,-7.64 -17.11,-8.89 -32.67,-21.2 -51.5,-26.43 -21.57,-6.25 -44.31,-3.62 -66.32,-6.78 -8.88,-1.34 -17.82,-4.31 -24.6,-10.41 -10.37,4.14 -21.63,1.37 -31.74,-2.09 -9.47,-3.11 -19.52,-5.6 -29.54,-4.05 -1.87,-4.03 -4.85,-7.86 -9.17,-9.41 -5.58,-2.05 -11.67,-1.96 -17.53,-1.78 -20.98,1.1 -41.87,-1.81 -62.7,-3.91 C 592.28,5.61 571.12,2.74 549.94,4.12 533.5,6.23 516.57,6.5 500.76,11.89 m -5.37,283.5 c -9.88,5.87 -16.45,15.6 -25.16,22.85 -7.79,6.79 -17.32,11.08 -26.62,15.34 -26.85,11.39 -55.23,18.5 -83.37,25.86 -28.1,6.96 -56.47,13.31 -85.35,15.96 -7.95,0.99 -16.14,-2.32 -23.89,0.43 -4.95,1.78 -7.02,7.28 -7.28,12.14 24.8,-2.99 49.57,-6.22 74.29,-9.77 41.38,-6.24 83.06,-13.61 122.05,-29.31 21.28,-8.71 41.84,-20.25 58.11,-36.72 4.41,-4.64 9.2,-9.18 11.99,-15.04 1.05,-1.99 1.07,-4.27 1,-6.45 -5.53,0.31 -11.02,1.83 -15.77,4.71 m 358.33,6.65 c 0.44,5.91 5.42,10.13 10.03,13.2 8.69,5.34 17.12,11.14 26.16,15.9 31.21,16.87 65.37,27.49 99.84,35.37 27.32,6.17 55.01,10.61 82.79,14.13 7.95,1.17 16.02,1.62 23.92,3.17 -4.64,-5.42 -11.54,-8.35 -17.72,-11.66 -27.08,-12.6 -57.15,-15.76 -86.14,-21.51 -31.26,-6.3 -62.6,-13.58 -91.97,-26.26 -8.25,-4 -17.26,-7.53 -23.3,-14.75 -3.65,-3.93 -6.91,-9.08 -12.53,-10.25 -3.78,-0.63 -8.1,0.17 -11.08,2.66 m -364.9,131.85 c -4.59,1.36 -9.13,3.1 -13.12,5.77 -6.54,4.49 -6.65,14.39 -13.94,18.06 -6.68,2.17 -13.85,0.58 -20.63,-0.36 -9.05,-1.77 -18.26,0.03 -27.25,1.31 -20.71,3.58 -40.98,9.26 -61.43,14.05 -16.98,4.39 -34.56,9.18 -48.73,19.98 -10.02,7.83 -16.95,18.99 -21.33,30.79 -6.95,18.69 -8.98,38.74 -9.89,58.52 -0.7,21.78 -0.1,43.57 0.73,65.34 33.57,-3.95 67.32,-0.12 100.82,2.67 16.81,1.52 33.65,2.79 50.49,4.02 28.05,1.7 56.65,2.97 84.24,-3.5 17.76,-3.98 33.9,-13.35 47.71,-25.02 9.47,-8.41 18.81,-18.26 21.91,-30.91 1.1,-7.83 -0.44,-15.74 -0.17,-23.6 0.48,-11.16 2.79,-22.13 4.92,-33.06 4.33,-20.36 7.37,-41.1 7.11,-61.96 -0.02,-9.19 -0.44,-18.71 -3.94,-27.33 -2.62,-6.45 -8.9,-10.31 -15.04,-12.9 -10.84,-4.45 -22.61,-5.97 -34.22,-6.58 -6.34,-0.68 -12.74,-0.47 -19.08,0.14 -9.85,0.38 -19.65,1.96 -29.16,4.57 m 451.96,-3.01 c -3.39,2.03 -4,6.44 -5.74,9.7 -29.28,-2.25 -59.09,-2.13 -87.83,4.54 -19.17,4.33 -37.62,11.64 -54.65,21.43 -15.76,9.05 -31.2,19.01 -44.27,31.74 -4.48,4.68 -8.86,9.71 -11.25,15.83 -2.45,6.33 -3.59,13.07 -4.45,19.78 -2.35,21.32 -4.92,42.9 -1.89,64.3 24.06,9.16 46.61,21.77 70.29,31.81 23.84,10.37 49.21,17.78 75.22,19.57 10.85,0.66 21.72,-0.95 32.55,0.11 6.09,0.96 11.71,3.68 17.35,6.06 11.88,5.37 25.08,6.52 37.9,7.66 10.31,0.76 20.56,-0.44 30.82,-1.06 -0.57,-0.24 -1.12,-0.48 -1.65,-0.71 2.62,0.14 5.26,-0.13 7.82,-0.76 18.26,-3.71 36.08,-11.3 50.05,-23.82 1.27,-0.79 0.41,-2.3 0.26,-3.4 -3.09,-12.02 -2.39,-24.65 -0.23,-36.76 2.74,-16.04 7.98,-31.62 9.5,-47.86 1.29,-12.14 -0.18,-24.82 -5.76,-35.79 -8.7,-17.98 -23.67,-31.64 -36.45,-46.63 -10.84,-12.27 -22.61,-24.56 -37.98,-31.03 -12.38,-5.48 -26.32,-6.3 -39.61,-4.71 M 586.56,765.44 c -7.75,11.12 -6.06,26.05 -14.07,37.03 -7.79,11.45 -22.15,17.02 -28.28,29.79 -2.74,5.13 -2.22,11.06 -2,16.64 -7.45,10.58 -16.32,20.13 -23.17,31.14 -8.13,12.68 -12.93,27.47 -13.4,42.55 6.25,0.27 13,-2.02 16.43,-7.55 4.55,-7.47 4.57,-16.57 4.76,-25.04 0.8,-2.31 2.93,-3.88 4.33,-5.85 29.48,-35.92 50.43,-77.73 70.79,-119.23 -4.85,-1.98 -10.87,-2.41 -15.39,0.52 m 163.83,49.52 c 1.05,14.83 7.12,28.69 14.02,41.66 6.49,12.26 12.99,24.91 14.93,38.83 0.94,5.23 0.46,10.55 0.86,15.83 7.77,-20.13 5.21,-42.86 -3,-62.43 -5.58,-14.04 -13.75,-26.79 -21.56,-39.64 -1.56,2.09 -3.79,3.61 -5.25,5.75 m -64.42,101.03 c -3.26,3.05 -5.89,7.81 -4.2,12.33 1.68,4.33 5.79,7.27 9.99,8.92 1.75,-5.58 2.62,-11.42 2.23,-17.26 2.27,-1.81 4.96,-3.6 8.02,-3.25 4.57,0.59 8.7,2.75 12.9,4.54 4.36,2.01 9.62,3 13.8,-0.04 -0.91,-3.62 -2.09,-7.42 -4.99,-9.96 -3.55,-3.63 -8.87,-4.52 -13.72,-4.68 -8.71,0.46 -17.53,3.43 -24.03,9.4 m -69.32,-7.08 c -8.54,1.19 -17.64,4.52 -22.44,12.14 1.8,2.88 5.54,3.82 8.77,3.72 5.97,0.2 11.38,-2.65 16.67,-5.02 2.89,-1.37 6.02,0.2 8.84,1.03 11.41,3.79 21.13,11.33 32.43,15.33 0.53,-7.42 -3.02,-14.69 -8.93,-19.12 -9.97,-7.53 -23.18,-9.45 -35.34,-8.08 m -242.62,68.73 c -33.8,52.23 -73.86,100.55 -102.11,156.25 -1.98,3.12 0.3,6.69 0.09,10.08 0.37,10.24 -6.42,18.49 -10.9,27.1 -3.22,5.88 -4.07,12.75 -2.84,19.31 4.25,-1.8 7.54,-5.17 10.61,-8.5 6.62,-7.69 10.13,-17.43 12.92,-27.04 3.92,-13.75 6.49,-28.07 13.3,-40.79 10.98,-21.58 28.68,-38.49 44.13,-56.77 1.53,-3.71 1.42,-8.04 3.32,-11.68 5.69,-13.25 19.69,-19.99 26.88,-32.17 2.54,-4.3 2.09,-9.81 5.17,-13.83 5.26,-5.35 13.38,-6.95 18.1,-12.95 2.98,-3.63 2.56,-9.85 -0.74,-12.97 -6.38,-0.46 -11.44,5.13 -17.93,3.96 m 99.35,113.91 c -22.79,5.01 -43.97,15.59 -63.19,28.63 -14.33,9.84 -28.45,20.06 -41.62,31.44 -5.76,4.72 -11.65,9.49 -18.51,12.52 -6.73,2.98 -14.51,1.56 -21.19,4.72 -15.81,6.35 -27.63,19.08 -41.42,28.6 -2.93,1.75 -3.38,5.4 -4.77,8.24 -9.15,22.18 -17.36,46.15 -13.88,70.49 1.01,8.8 4.71,17.02 9.73,24.25 5.72,8.43 12.34,16.27 19.6,23.43 11.25,11.48 27.17,16.4 39.43,26.57 9.63,7.62 17.95,16.84 28.15,23.75 7.44,5.11 16.54,6.83 25.32,7.97 12.6,1.64 25.31,1.04 37.97,1.15 24.5,0.14 48.7,-4.22 73.09,-5.88 28.96,-1.89 57.95,0.74 86.93,0.38 18.6,0.01 37.39,-2.88 54.59,-10.18 19.75,-8.1 36.72,-21.45 52.7,-35.34 12.86,-11.22 25.57,-22.68 39.64,-32.39 17.62,-12.74 35.45,-25.8 49.06,-42.98 -1.26,-6.36 -1.32,-13.63 2.93,-18.94 6.1,-7.77 16.8,-9.46 23.45,-16.59 0.79,-1.11 2.63,-2.51 1.1,-3.81 -22.45,-25.32 -49.58,-45.78 -74.14,-68.92 -13.43,-12.33 -26.81,-24.97 -42.4,-34.59 -11.05,-6.86 -23.74,-10.8 -36.64,-12.2 -35.5,-3.54 -70.83,7.29 -106.3,2.61 -9.65,-1.47 -19.63,-3.14 -28.09,-8.29 -6.44,-3.74 -13.27,-7.43 -20.85,-7.9 -10.32,-0.57 -20.62,1.12 -30.69,3.26 m 372.83,71.39 c 3.12,10.59 9.42,19.81 14.21,29.66 6.63,13.08 10.65,27.35 12.9,41.81 3.1,20.48 2.8,41.62 -2.35,61.75 11.44,-12.67 14.68,-30.59 14.29,-47.16 -0.2,-24.23 -7.74,-47.58 -16.2,-70.02 -2.64,-6.15 -5.6,-12.93 -11.67,-16.39 -3.5,-2.12 -7.64,-0.98 -11.18,0.35 m -627.32,161.17 c 27.56,21.29 47.73,50.11 67.85,78.12 4.22,5.5 7.86,11.54 12.53,16.65 6.9,1.13 13.96,2.87 19.59,7.27 5.38,3.86 8.55,9.85 11.01,15.84 9.6,2.2 18.65,6.27 28.08,9.11 4.93,1.34 10.24,2.77 15.32,1.34 4.08,-1.28 5.99,-6.34 4.61,-10.19 -0.91,-2.12 -3.11,-3.23 -5.15,-3.98 -9.2,-3.13 -19.29,-1.43 -28.48,-4.47 -1.94,-2.49 -2.33,-6.07 -4.6,-8.46 -6.91,-8.43 -18.17,-10.77 -28.06,-13.94 -7.42,-14.52 -19.25,-25.98 -30.13,-37.87 -10.96,-11.74 -21.01,-25.03 -25.37,-40.73 -0.65,-1.57 -0.59,-3.78 -2.41,-4.48 -7.77,-4.19 -15.5,-9.87 -24.67,-9.99 -4.24,-0.16 -7.67,2.59 -10.12,5.78 m 7.25,97.25 c 1.63,7.66 7.19,13.58 9.21,21.06 7.66,1.5 14.19,6.16 19.74,11.44 9.53,9.16 17.15,20.33 27.88,28.22 7.2,5.48 16.21,7.49 24.96,8.9 22.53,3.25 45.36,2.32 68.04,2.55 24.67,0.72 49.34,1.9 74.03,1.72 27.68,0.1 55.36,-0.11 83.03,-0.7 26.66,-0.15 53.33,-1.05 79.99,-0.25 27.34,1 54.62,3.52 81.99,3.45 9.59,-0.42 19.31,-0.24 28.74,-2.26 9.71,-2.44 15.42,-11.92 24.74,-15.17 20.59,-7.52 42.35,-10.89 63.55,-16.15 15.52,-3.92 31.35,-8.32 44.78,-17.35 8.21,-5.6 15.12,-13.52 18.06,-23.14 -14.78,7.39 -30.88,11.53 -45.96,18.18 -11.82,5.49 -22.19,13.75 -34.38,18.49 -20.16,8.14 -41.67,12.25 -63.12,15.31 -51.83,6.95 -104.24,6.64 -156.42,7.1 -12.01,0.18 -24,-0.41 -36,-0.25 -54.02,-0.46 -108.01,-2.44 -162.04,-2.26 -20.62,0.18 -41.42,4.5 -61.94,0.7 -9.22,-1.81 -17.75,-6.18 -25.29,-11.7 -16.04,-11.76 -27.84,-28.3 -43.8,-40.15 -5.9,-3.85 -12.37,-8.53 -19.79,-7.74 z"
         inkscape:connector-curvature="0"
         style="fill:#ffffff" />
      <path
         id="path3148"
         d="m 500.76,11.89 c 15.81,-5.39 32.74,-5.66 49.18,-7.77 21.18,-1.38 42.34,1.49 63.39,3.54 20.83,2.1 41.72,5.01 62.7,3.91 5.86,-0.18 11.95,-0.27 17.53,1.78 4.32,1.55 7.3,5.38 9.17,9.41 10.02,-1.55 20.07,0.94 29.54,4.05 10.11,3.46 21.37,6.23 31.74,2.09 6.78,6.1 15.72,9.07 24.6,10.41 22.01,3.16 44.75,0.53 66.32,6.78 18.83,5.23 34.39,17.54 51.5,26.43 10.34,5.2 21.99,9.6 33.75,7.64 4.75,-0.65 9.64,-1.62 14.39,-0.42 7.21,1.84 13.71,5.67 20.87,7.68 16.67,5.25 33.89,9.43 49.38,17.74 11.24,6.04 19.13,16.42 26.45,26.56 8.73,12.03 17.19,24.8 29.55,33.47 5.73,4.18 12.35,6.93 19.13,8.92 1.99,12.67 8.56,24.32 17.42,33.49 13.99,14.77 32.58,24.66 45.07,40.95 4.28,5.52 7.66,11.77 9.78,18.44 9.25,-0.59 18.25,-3.09 27.44,-4.21 10.61,-1.44 21.52,-2.24 32.11,-0.14 0.72,5.32 -4.73,8.47 -5.14,13.3 25.86,6.95 52.93,-2.15 78.95,3.54 4.09,1.23 8.93,2.27 11.82,5.53 -2.83,7.22 -9.04,13.06 -16.68,14.82 -8.2,1.88 -16.75,0.95 -24.98,-0.29 -13.56,-2.17 -26.93,-5.87 -40.72,-6.37 -6.17,-0.16 -12.45,0.39 -18.23,2.66 21.66,30.66 41.84,62.49 66.42,90.97 10.14,11.69 20.85,22.98 32.89,32.72 3.62,-8.35 2.04,-17.65 1.23,-26.4 -0.67,-7.43 -2.01,-15.45 1.32,-22.46 1.38,-3.18 4.42,-5.03 7.43,-6.43 4.66,10.25 4.94,21.85 3.42,32.84 -1.7,13 -5.65,25.73 -5.65,38.93 0.15,6.42 1.2,13.05 4.49,18.66 5.51,7.7 15.87,9.91 21.44,17.55 3.09,4.88 2.44,10.97 3.96,16.37 3.23,12.24 10.87,22.64 15.5,34.33 2.04,5.4 3.44,11.29 2.4,17.07 -1.06,6.73 -4.98,12.72 -9.79,17.39 -3.56,1.22 -7.01,-2.14 -7.92,-5.4 -2.16,-7.75 0.01,-16.12 -3.01,-23.72 -5.81,2.4 -10.73,8.17 -10.14,14.75 0.89,7.49 5.15,13.98 8.96,20.3 6.35,10.24 13.63,20.55 15.62,32.7 1.45,8.82 -3.59,17.9 0.15,26.43 4.21,9.74 13.59,16.79 15.53,27.6 1.97,11.53 1.75,23.31 1.46,34.97 -0.34,11.66 -0.91,23.32 -1.24,34.99 -0.95,24.69 1.42,49.33 1.74,74.01 0.77,28.67 0.86,57.37 -0.49,86.02 -0.11,9.93 1.65,19.92 0.25,29.81 -2.28,7.28 -9.6,11.35 -12.72,18.19 -9.59,19.55 -10.68,41.75 -12.55,63.08 -1.43,15.89 -2.41,32.17 -8.24,47.19 -3.73,9.95 -11.02,18.7 -20.77,23.17 0.77,23.47 -6.01,46.27 -13.98,68.08 -7.67,21.03 -13.7,43.08 -13.03,65.67 10.18,-16.05 18.12,-33.98 20.7,-52.95 9.53,-3.61 17.56,-10.59 23,-19.16 10.08,-16.1 13.54,-35.14 17.15,-53.5 4.34,-22.1 7.53,-45.27 19.71,-64.72 0.4,-4.25 -0.67,-8.55 -0.73,-12.81 -0.56,-12.58 -0.97,-25.59 3.16,-37.66 1.64,-5.07 4.83,-9.51 9.04,-12.77 2.92,-81.54 -0.31,-163.1 -0.99,-244.64 0.1,-27.34 -0.33,-54.68 0.49,-82 0.64,-27.52 1.99,-55.03 4.38,-82.46 0.34,-3.67 0.53,-7.37 1.28,-10.99 9.81,17.06 11.67,37.22 12.66,56.49 1.07,25.65 -0.64,51.3 -1.31,76.95 -0.55,24.99 -0.12,50.01 -0.26,75.01 0.01,9.67 -0.11,19.34 0.26,29.01 -0.51,26.66 0,53.33 -0.77,79.99 -0.43,28 -1.39,56 -3.06,83.96 -1.36,24.38 -3.92,48.66 -5.98,72.98 -1,9.5 -1.95,19.14 -5.1,28.21 -2.45,7.18 -10.67,10.62 -12.53,18.07 -1.21,7.61 1.34,15.16 1.4,22.78 -0.74,17.5 -6.17,34.71 -15.33,49.63 -11.13,18.61 -26.64,34.36 -36.19,53.96 -5.44,10.59 -8.52,22.2 -10.16,33.95 -5.21,6.32 -13.83,8.35 -19.46,14.23 -0.98,1.19 -2.84,2.39 -2.24,4.19 2.69,12.09 2.85,24.72 0.28,36.85 -4.1,19.52 -13.19,37.43 -20.01,56.05 -7.38,19.31 -9.44,40.06 -15.02,59.87 -2.69,9.07 -6.28,18.26 -12.88,25.25 -6.77,7.57 -16.72,11.59 -26.67,12.63 7.77,-15.88 16.52,-31.27 23.95,-47.32 10.21,-21.55 18.38,-44.25 22.1,-67.87 2.85,-17 3.17,-34.31 2.04,-51.47 -8.52,0.18 -16.2,5.55 -21.49,11.95 -9.29,11.53 -13.24,26.09 -19.98,39.06 -3.89,7.61 -8.8,15.04 -15.94,19.97 -8.53,6.29 -19,9.2 -27.53,15.49 -4.08,2.98 -7.38,6.93 -9.76,11.38 -18.35,2.28 -35.89,8.98 -51.95,17.99 -16.5,9.03 -31.96,19.94 -49.06,27.88 -11.3,5.32 -23.36,9.14 -35.77,10.69 -0.06,-6.51 2.01,-13.13 6.66,-17.82 4.54,-4.82 10.3,-8.3 14.71,-13.24 0.69,-0.93 1.62,-1.44 2.78,-1.54 20.86,-3.97 41.21,-10.5 60.59,-19.16 29.22,-12.98 56.07,-30.54 82.66,-48.14 2.21,-16.21 9.97,-31.27 20.75,-43.45 6.92,-7.72 14.28,-15.08 22.28,-21.69 6.88,-6.06 14.15,-11.91 19.57,-19.38 5.32,-7.57 3.27,-17.3 3.32,-25.93 -0.33,-6.3 0.86,-12.92 4.78,-18.01 3.32,-4.35 8.25,-7.16 11.52,-11.53 1.15,-18.79 4.27,-37.46 9.42,-55.58 11.93,-43.09 32.96,-83.12 43.48,-126.65 2.43,-10.24 4.94,-20.63 4.59,-31.24 0.04,-7.49 -0.38,-15.36 2.61,-22.39 3.75,-7.28 10.73,-12.52 13.55,-20.35 3.36,-9.73 4.72,-20.04 5.06,-30.29 0.37,-21.14 -3.57,-42.02 -6.6,-62.86 -2.26,-15.26 -4.13,-30.62 -4.39,-46.07 -0.23,-26.12 4.32,-51.96 5.65,-78 0.41,-13.24 0.47,-26.78 -3.41,-39.58 -2.73,-7.34 -8.32,-13.07 -12.01,-19.89 -5.25,-8.74 -5.69,-19.18 -6.79,-29.04 -0.73,-5.96 -1.82,-12.52 -6.43,-16.8 -2.73,-2.67 -6.5,-3.56 -9.95,-4.85 -4.63,-19.55 -5.44,-39.8 -7,-59.77 -1.75,-22.84 -2.88,-46.16 -10.57,-67.95 -3.61,-9.78 -8.69,-19.34 -16.39,-26.52 -6.3,-5.58 -13.62,-9.77 -20.63,-14.35 -8.41,-5.36 -15.8,-12.14 -22.86,-19.14 -25.84,-25.04 -46.49,-54.74 -71.21,-80.81 -6.39,1.47 -13.54,2.88 -19.69,-0.24 -8.5,-4.21 -13.7,-12.55 -18.93,-20.09 -0.95,-1.54 -3.07,-3.41 -1.1,-5.07 4.75,-5.44 7.73,-13.11 5.17,-20.22 -3.52,-10.33 -12.23,-17.61 -20.17,-24.58 -30.76,-25.53 -58.46,-54.78 -82,-87.09 -7.34,-11.44 -19.16,-19.06 -31.23,-24.75 -13.14,-6.1 -27.1,-10.21 -41.11,-13.78 -19.56,-4.8 -39.38,-8.42 -59.16,-12.21 -26.86,-5.18 -54.1,-8.5 -81.45,-9.57 -24.92,-0.84 -50.26,0.04 -74.45,6.62 -10.15,2.52 -17.51,10.95 -27.6,13.61 -20.08,5.81 -41.19,5.97 -61.92,6.49 -12.64,-0.08 -25.31,0.36 -37.91,-0.89 -9.97,-0.69 -19.99,-1.97 -29.98,-0.99 -14.76,0.92 -27.45,10.03 -42.12,11.49 -24.68,2.25 -49.67,1.08 -74.06,-3.37 0.54,-3.68 2.87,-7.19 6.69,-8.02 9.28,-2.18 18.91,1.06 28.23,-0.75 2.12,-0.69 4.85,-1.63 5.62,-3.94 -0.01,-6.29 -3.74,-12.14 -8.84,-15.64 -9.32,-6.41 -21.28,-7.65 -30.2,-14.74 -4.88,-3.77 -7.41,-9.88 -7.58,-15.95 -15.23,2.54 -29.91,8.07 -43.12,16.04 -28.37,16.89 -49.81,43.34 -79.1,58.88 -3.42,2.03 -7.32,3.21 -10.6,5.41 -4.91,6.79 -6.86,15.31 -12.28,21.78 -2.33,2.13 -0.25,5.26 1.81,6.66 2.27,1.55 4.54,4.29 3.08,7.17 -9.46,16.12 -24.05,28.76 -40.32,37.72 -3.22,14.61 -4.81,29.58 -8.99,43.97 -2.23,7.58 -5.51,14.99 -10.61,21.1 -0.69,-8.51 2.88,-16.87 1.53,-25.39 -0.32,-2.55 -1.61,-4.85 -3.16,-6.85 -1.47,1.32 -3.48,2.64 -3.32,4.89 0.29,4.91 2.98,9.47 2.61,14.46 -1.05,1.38 -2.87,1.84 -4.31,2.69 -21.23,10.53 -39.74,27.4 -49.88,49.04 -6.38,13.42 -9.82,28.09 -11.05,42.86 8.11,-1.37 14.41,-7.61 18.8,-14.22 9.31,-14.09 13.38,-30.78 21.23,-45.62 0.75,-1.23 1.34,-2.86 2.97,-3.08 6.1,-1.59 12.78,-0.89 18.5,1.71 -1.66,11.94 -5.54,23.62 -11.84,33.93 -11.77,19.98 -30.45,34.64 -42.86,54.16 -4.18,6.53 -7.6,13.58 -9.97,20.98 -0.43,1.08 -0.73,2.5 -2.03,2.88 -3.79,1.71 -8.12,1.57 -11.94,3.19 -1.89,0.72 -2.6,2.79 -3.64,4.36 -13.2,23.06 -18.06,49.54 -27.99,73.96 -2.85,6.87 -5.73,13.84 -10.2,19.85 -4.59,6.55 -10.2,12.86 -11.96,20.88 -1.95,9.91 -0.4,20.25 -3.16,30.04 -2.65,9.64 -9.21,17.68 -11.68,27.37 -1.87,7.12 3.72,14.8 -0.43,21.52 -5.98,9.47 -17.21,14.28 -22.8,24.07 -7.37,16.82 -5.73,35.92 -12.07,53.05 -1.79,4.81 -4.38,9.4 -8.05,13.04 0.25,18.83 -3.08,37.54 -8.34,55.58 -7.49,25.73 -17.58,50.83 -21.59,77.46 -5.45,35.17 0.91,70.58 3.58,105.7 1.42,25.04 4.57,50.08 2.95,75.19 -0.61,7.59 -1.58,15.24 -3.99,22.49 -2.91,6.77 -8.7,11.97 -10.9,19.12 -4.53,14.64 -6.68,29.95 -7.42,45.23 -0.32,10.99 0.02,22.13 2.87,32.81 1.18,4.33 2.84,8.73 6.12,11.94 7.45,7.43 18.28,10.74 24.72,19.31 5.85,8.08 8.75,17.78 11.8,27.15 5.4,18.09 12.47,35.61 18.66,53.43 12.77,35.58 25.3,71.34 41.54,105.53 -1.57,3.88 -4.43,7.44 -4.3,11.88 -0.02,7.66 5.64,13.57 10.4,18.94 4.86,5.35 10.67,11.34 10.35,19.12 -0.58,3.34 -1.53,7.53 -4.49,9.46 -6.93,-2.01 -12.53,-7.04 -16.76,-12.72 -6.27,-8.44 -9.99,-18.35 -14.13,-27.92 -12.33,-29.08 -25.52,-57.83 -40.15,-85.83 -5.07,-9.69 -11.53,-18.55 -16.98,-28.01 -3.11,-5.59 -6.18,-11.37 -7.37,-17.72 -1.04,-5.31 -1.14,-10.8 -2.68,-16 -7.18,-21.15 -27.03,-34.97 -34.21,-56.07 -3.63,-9.45 -0.02,-19.58 -1.93,-29.26 -2.43,-16.22 -8.03,-31.74 -11.08,-47.83 -2.6,-13.15 -3.1,-27.14 1.4,-39.93 1.31,-3.99 3.32,-7.67 5.16,-11.41 5.8,5.34 7.07,13.62 7.45,21.12 0.71,16.76 -3.57,33.82 0.9,50.33 0.89,-2.67 0.98,-5.51 1.27,-8.28 3.65,-36.28 7.9,-72.5 10.56,-108.87 2.26,-33.4 0.14,-66.88 -2.37,-100.21 -2.63,-24.97 1.83,-49.9 2.76,-74.85 1.83,-25.35 -0.42,-50.7 -1.29,-76.04 -0.83,-23.22 -1.05,-46.56 1.74,-69.67 1.85,-14.06 4.67,-28.24 10.98,-41.05 3.96,-8.52 8.46,-16.85 11.03,-25.93 1.45,-5.13 0.39,-10.69 2.35,-15.7 3.55,-8.02 12.05,-12.27 16.07,-19.95 6.26,-12.73 4.19,-27.81 10.45,-40.53 7.77,-13.06 23.71,-18.5 31.4,-31.61 2.72,-4.41 1.89,-9.72 1.71,-14.61 -0.19,-5.51 2.64,-10.52 6.12,-14.57 4.08,-5.25 9.41,-9.27 14.29,-13.71 5.15,-4.16 9.64,-9.05 14.73,-13.29 6.34,-5.74 12.93,-11.99 15.66,-20.34 2.88,-9.23 -1.29,-18.89 0.92,-28.2 3.69,-18.99 18.39,-33.66 21.93,-52.7 1.81,-8.74 0.57,-17.93 -2.85,-26.13 4.15,-4.71 9.95,-7.34 14.85,-11.12 3.25,-2.48 5.43,-6.04 7.3,-9.6 6.9,-13.62 8.11,-29.34 15.22,-42.87 4.6,-8.69 12.18,-15.29 19.97,-21.06 10.45,-7.8 22.07,-14.31 30.77,-24.22 12.95,-15 22.4,-32.66 35.43,-47.61 39.12,-44.23 87.58,-78.51 132.39,-116.5 -6.98,-5.84 -17.19,-0.54 -24.5,-5.53 -0.56,-4.71 -0.14,-9.48 -0.19,-14.21 3.41,-2.63 7.35,-4.82 11.75,-5.01 16.72,-1.08 31.88,11.2 48.74,7.31 8.76,-3.52 12.78,-13.78 21.97,-16.7 m 3.28,20.72 c 8.57,3.02 15.89,8.73 21.9,15.44 12.1,12.86 20.59,29.47 35.89,39.07 10.01,6.39 22.63,6.79 33.82,3.63 -0.81,-21.43 1.55,-42.97 -1.17,-64.32 -8.95,-2.41 -18.22,-3.59 -27.48,-3.45 -21.36,-0.14 -42.26,4.94 -62.96,9.63 m 113.45,-6.16 c 3.56,21.27 13.91,40.42 21.82,60.24 1.16,2.55 1.6,5.51 3.29,7.79 12.75,5.23 27.01,5.75 40.49,3.53 22.27,-3.61 42.9,-13.44 64.95,-17.97 20.8,-4.34 42.09,-1.24 63.02,0.31 18.78,1.55 38.36,2.29 56.31,-4.43 -10.4,-5.41 -21.62,-9.09 -32.7,-12.87 C 812.05,55.76 788.81,50.56 765.44,46.32 716.43,37.57 666.83,32.87 617.49,26.45 M 485.9,48.68 c 0.35,3.99 1.07,7.99 2.71,11.68 3.26,7.35 10,12.48 17.07,15.92 9.29,4.47 19.24,7.39 28.53,11.87 -0.9,-9.16 -5.67,-17.87 -13.18,-23.24 C 510.53,57.2 497.82,53.57 485.9,48.68 m 133.36,35.21 c -0.86,2.18 -1.82,4.34 -2.19,6.67 1.91,0.1 3.83,0.14 5.76,0.17 0.1,-2.82 0.16,-6.66 -3.57,-6.84 M 128.38,502.76 c -0.14,2.08 2.58,2.69 3.87,1.5 1.18,-1.88 1.44,-4.15 1.81,-6.28 -2.73,-0.11 -6.49,1.42 -5.68,4.78 m -10.43,22.21 c -7.1,5.04 -15.51,9.08 -20.13,16.81 -5.5,9.88 -2.33,22.21 -8.01,32.04 -3.02,5.46 -8.42,8.97 -11.94,14.04 -12.17,17.47 -20.29,37.63 -24.26,58.52 -4.45,23 -4.06,46.71 -0.67,69.83 0.43,2.73 0.62,5.55 1.7,8.14 2,-9.53 4.53,-18.95 7.61,-28.19 12.62,-39.05 34.54,-74.26 47.95,-113.01 6.79,-19.61 11.68,-40 13.17,-60.74 -2,0.4 -3.83,1.3 -5.42,2.56 z"
         inkscape:connector-curvature="0"
         style="fill:#000000" />
      <path
         id="path3150"
         d="m 504.04,32.61 c 20.7,-4.69 41.6,-9.77 62.96,-9.63 9.26,-0.14 18.53,1.04 27.48,3.45 2.72,21.35 0.36,42.89 1.17,64.32 -11.19,3.16 -23.81,2.76 -33.82,-3.63 -15.3,-9.6 -23.79,-26.21 -35.89,-39.07 -6.01,-6.71 -13.33,-12.42 -21.9,-15.44 z"
         inkscape:connector-curvature="0"
         style="fill:#ffffff" />
      <path
         id="path3152"
         d="m 617.49,26.45 c 49.34,6.42 98.94,11.12 147.95,19.87 23.37,4.24 46.61,9.44 69.23,16.73 11.08,3.78 22.3,7.46 32.7,12.87 -17.95,6.72 -37.53,5.98 -56.31,4.43 -20.93,-1.55 -42.22,-4.65 -63.02,-0.31 -22.05,4.53 -42.68,14.36 -64.95,17.97 -13.48,2.22 -27.74,1.7 -40.49,-3.53 -1.69,-2.28 -2.13,-5.24 -3.29,-7.79 C 631.4,66.87 621.05,47.72 617.49,26.45 z"
         inkscape:connector-curvature="0"
         style="fill:#ffffff" />
      <path
         id="path3154"
         d="m 485.9,48.68 c 11.92,4.89 24.63,8.52 35.13,16.23 7.51,5.37 12.28,14.08 13.18,23.24 -9.29,-4.48 -19.24,-7.4 -28.53,-11.87 -7.07,-3.44 -13.81,-8.57 -17.07,-15.92 -1.64,-3.69 -2.36,-7.69 -2.71,-11.68 z"
         inkscape:connector-curvature="0"
         style="fill:#ffffff" />
      <path
         id="path3156"
         d="m 619.26,83.89 c 3.73,0.18 3.67,4.02 3.57,6.84 -1.93,-0.03 -3.85,-0.07 -5.76,-0.17 0.37,-2.33 1.33,-4.49 2.19,-6.67 z"
         inkscape:connector-curvature="0"
         style="fill:#fefefe" />
      <path
         id="path3158"
         d="m 495.39,295.39 c 4.75,-2.88 10.24,-4.4 15.77,-4.71 0.07,2.18 0.05,4.46 -1,6.45 -2.79,5.86 -7.58,10.4 -11.99,15.04 -16.27,16.47 -36.83,28.01 -58.11,36.72 -38.99,15.7 -80.67,23.07 -122.05,29.31 -24.72,3.55 -49.49,6.78 -74.29,9.77 0.26,-4.86 2.33,-10.36 7.28,-12.14 7.75,-2.75 15.94,0.56 23.89,-0.43 28.88,-2.65 57.25,-9 85.35,-15.96 28.14,-7.36 56.52,-14.47 83.37,-25.86 9.3,-4.26 18.83,-8.55 26.62,-15.34 8.71,-7.25 15.28,-16.98 25.16,-22.85 z"
         inkscape:connector-curvature="0"
         style="fill:#000000" />
      <path
         id="path3160"
         d="m 853.72,302.04 c 2.98,-2.49 7.3,-3.29 11.08,-2.66 5.62,1.17 8.88,6.32 12.53,10.25 6.04,7.22 15.05,10.75 23.3,14.75 29.37,12.68 60.71,19.96 91.97,26.26 28.99,5.75 59.06,8.91 86.14,21.51 6.18,3.31 13.08,6.24 17.72,11.66 -7.9,-1.55 -15.97,-2 -23.92,-3.17 -27.78,-3.52 -55.47,-7.96 -82.79,-14.13 -34.47,-7.88 -68.63,-18.5 -99.84,-35.37 -9.04,-4.76 -17.47,-10.56 -26.16,-15.9 -4.61,-3.07 -9.59,-7.29 -10.03,-13.2 z"
         inkscape:connector-curvature="0"
         style="fill:#000000" />
      <path
         id="path3162"
         d="m 488.82,433.89 c 9.51,-2.61 19.31,-4.19 29.16,-4.57 6.34,-0.61 12.74,-0.82 19.08,-0.14 11.61,0.61 23.38,2.13 34.22,6.58 6.14,2.59 12.42,6.45 15.04,12.9 3.5,8.62 3.92,18.14 3.94,27.33 0.26,20.86 -2.78,41.6 -7.11,61.96 -2.13,10.93 -4.44,21.9 -4.92,33.06 -0.27,7.86 1.27,15.77 0.17,23.6 -3.1,12.65 -12.44,22.5 -21.91,30.91 -13.81,11.67 -29.95,21.04 -47.71,25.02 -27.59,6.47 -56.19,5.2 -84.24,3.5 -16.84,-1.23 -33.68,-2.5 -50.49,-4.02 -33.5,-2.79 -67.25,-6.62 -100.82,-2.67 -0.83,-21.77 -1.43,-43.56 -0.73,-65.34 0.91,-19.78 2.94,-39.83 9.89,-58.52 4.38,-11.8 11.31,-22.96 21.33,-30.79 14.17,-10.8 31.75,-15.59 48.73,-19.98 20.45,-4.79 40.72,-10.47 61.43,-14.05 8.99,-1.28 18.2,-3.08 27.25,-1.31 6.78,0.94 13.95,2.53 20.63,0.36 7.29,-3.67 7.4,-13.57 13.94,-18.06 3.99,-2.67 8.53,-4.41 13.12,-5.77 m 34.12,10 c -19.96,8.3 -40.88,13.98 -61.87,18.95 -46.04,10.82 -93.14,17.32 -138.3,31.72 -1.92,0.65 -4.12,1.08 -5.29,2.93 -15.05,19.24 -25.55,41.88 -31.26,65.61 -5.95,24.31 -7.04,49.56 -5.71,74.48 10.5,0.11 21.04,-0.32 31.51,0.63 20.7,0.29 41.31,2.02 62,2.56 10.29,1.21 20.68,0.38 30.98,1.43 24.74,0.49 49.54,0.54 74.17,-2.09 20.08,-2.41 40.75,-6.11 58.28,-16.76 13.53,-8.02 22.41,-21.99 27.32,-36.63 6.59,-19.86 7.86,-40.95 8.91,-61.7 0.88,-21.97 1.37,-43.99 3.41,-65.89 -2.65,-4.86 -7.05,-8.62 -11.76,-11.43 -10.68,-6.08 -23.37,-6.74 -35.36,-6.04 -2.53,0.03 -4.75,1.34 -7.03,2.23 z"
         inkscape:connector-curvature="0"
         style="fill:#000000" />
      <path
         id="path3164"
         d="m 940.78,430.88 c 13.29,-1.59 27.23,-0.77 39.61,4.71 15.37,6.47 27.14,18.76 37.98,31.03 12.78,14.99 27.75,28.65 36.45,46.63 5.58,10.97 7.05,23.65 5.76,35.79 -1.52,16.24 -6.76,31.82 -9.5,47.86 -2.16,12.11 -2.86,24.74 0.23,36.76 0.15,1.1 1.01,2.61 -0.26,3.4 -13.97,12.52 -31.79,20.11 -50.05,23.82 -2.56,0.63 -5.2,0.9 -7.82,0.76 0.53,0.23 1.08,0.47 1.65,0.71 -10.26,0.62 -20.51,1.82 -30.82,1.06 -12.82,-1.14 -26.02,-2.29 -37.9,-7.66 -5.64,-2.38 -11.26,-5.1 -17.35,-6.06 -10.83,-1.06 -21.7,0.55 -32.55,-0.11 -26.01,-1.79 -51.38,-9.2 -75.22,-19.57 -23.68,-10.04 -46.23,-22.65 -70.29,-31.81 -3.03,-21.4 -0.46,-42.98 1.89,-64.3 0.86,-6.71 2,-13.45 4.45,-19.78 2.39,-6.12 6.77,-11.15 11.25,-15.83 13.07,-12.73 28.51,-22.69 44.27,-31.74 17.03,-9.79 35.48,-17.1 54.65,-21.43 28.74,-6.67 58.55,-6.79 87.83,-4.54 1.74,-3.26 2.35,-7.67 5.74,-9.7 m 3.88,13.33 c 0.66,6.45 7.84,8.3 11.61,12.52 1.89,2.02 1.58,4.86 0.78,7.28 -9.35,-4.41 -19.34,-7.36 -29.44,-9.41 -34.29,-6.68 -70.18,-2.04 -102.72,10.15 -19.32,7.44 -37.95,17.72 -52.62,32.52 -7.36,8.29 -16.59,14.83 -23.14,23.86 -4.64,6.67 -5.86,15.01 -6.54,22.92 -0.75,12.26 -0.02,24.57 -0.69,36.84 3.45,4.88 8.12,8.71 12.67,12.52 11.55,9.22 24.9,15.85 38.54,21.36 20.04,7.89 40.96,13.22 61.94,17.91 24.03,5.13 48.14,9.82 72.25,14.51 24.87,4.22 50.69,8.3 75.65,2.49 15.32,-3.45 29.7,-13.2 36.34,-27.73 0.33,-2.36 -0.46,-4.72 -0.61,-7.07 -2.29,-21.18 3.73,-41.92 6.18,-62.79 0.77,-8.5 1.53,-17.45 -1.28,-25.67 -4.83,-9.71 -11.92,-18.05 -18.19,-26.84 -12.08,-16.92 -25.91,-33.17 -43.68,-44.31 -11.08,-6.89 -23.91,-11.24 -37.05,-11.06 z"
         inkscape:connector-curvature="0"
         style="fill:#000000" />
      <path
         id="path3166"
         d="m 522.94,443.89 c 2.28,-0.89 4.5,-2.2 7.03,-2.23 11.99,-0.7 24.68,-0.04 35.36,6.04 4.71,2.81 9.11,6.57 11.76,11.43 -2.04,21.9 -2.53,43.92 -3.41,65.89 -1.05,20.75 -2.32,41.84 -8.91,61.7 -4.91,14.64 -13.79,28.61 -27.32,36.63 -17.53,10.65 -38.2,14.35 -58.28,16.76 -24.63,2.63 -49.43,2.58 -74.17,2.09 -10.3,-1.05 -20.69,-0.22 -30.98,-1.43 -20.69,-0.54 -41.3,-2.27 -62,-2.56 -10.47,-0.95 -21.01,-0.52 -31.51,-0.63 -1.33,-24.92 -0.24,-50.17 5.71,-74.48 5.71,-23.73 16.21,-46.37 31.26,-65.61 1.17,-1.85 3.37,-2.28 5.29,-2.93 45.16,-14.4 92.26,-20.9 138.3,-31.72 20.99,-4.97 41.91,-10.65 61.87,-18.95 M 393.8,540.81 c -9.56,5.99 -16.63,16 -18.33,27.23 -1.55,11.01 0.42,22.45 4.94,32.55 2.21,1.6 4.86,2.47 7.36,3.52 14.43,5.44 29.97,6.77 45.25,7.48 13.33,-0.02 26.71,0.37 40,-0.89 8.89,0.08 17.68,-1.39 26.57,-1.26 5.7,-9.45 10,-20.26 9.43,-31.48 -0.12,-12.36 -7.27,-23.78 -16.95,-31.08 -15.61,-12.02 -35.68,-16.7 -55.07,-17.18 -14.95,0.18 -30.45,2.87 -43.2,11.11 z"
         inkscape:connector-curvature="0"
         style="fill:#ffffff" />
      <path
         id="path3168"
         d="m 944.66,444.21 c 13.14,-0.18 25.97,4.17 37.05,11.06 17.77,11.14 31.6,27.39 43.68,44.31 6.27,8.79 13.36,17.13 18.19,26.84 2.81,8.22 2.05,17.17 1.28,25.67 -2.45,20.87 -8.47,41.61 -6.18,62.79 0.15,2.35 0.94,4.71 0.61,7.07 -6.64,14.53 -21.02,24.28 -36.34,27.73 -24.96,5.81 -50.78,1.73 -75.65,-2.49 -24.11,-4.69 -48.22,-9.38 -72.25,-14.51 -20.98,-4.69 -41.9,-10.02 -61.94,-17.91 -13.64,-5.51 -26.99,-12.14 -38.54,-21.36 -4.55,-3.81 -9.22,-7.64 -12.67,-12.52 0.67,-12.27 -0.06,-24.58 0.69,-36.84 0.68,-7.91 1.9,-16.25 6.54,-22.92 6.55,-9.03 15.78,-15.57 23.14,-23.86 14.67,-14.8 33.3,-25.08 52.62,-32.52 32.54,-12.19 68.43,-16.83 102.72,-10.15 10.1,2.05 20.09,5 29.44,9.41 0.8,-2.42 1.11,-5.26 -0.78,-7.28 -3.77,-4.22 -10.95,-6.07 -11.61,-12.52 m -95.26,74.15 c -1.58,0.54 -1.68,2.51 -2.13,3.86 -5.3,21.58 -2.5,43.96 -1.26,65.85 0.2,1.78 -0.2,4.21 1.87,5.07 9.84,6.29 21.69,8.31 33.14,9.28 16.95,0.9 34.16,-1.07 50.28,-6.5 10.6,-3.68 21.62,-8.97 27.86,-18.73 5.84,-11.23 5.96,-26.08 -1.99,-36.36 -7.7,-10.31 -20.07,-15.85 -32.21,-19.04 -18.71,-4.51 -38.91,-3.89 -56.9,3.25 0.11,0.34 0.33,1.01 0.44,1.34 9.02,3.58 18.86,4.34 28.44,5.26 14.09,1.6 28.65,1.98 41.99,7.3 6.27,2.43 12.33,7.3 13.59,14.25 0.78,5.4 0.23,11.54 -3.51,15.82 -5.38,6.28 -12.86,10.24 -20.27,13.64 -15.8,6.86 -33.25,10.75 -50.49,8.6 -5.79,-1.06 -11.68,-3.31 -15.73,-7.73 -4.75,-5.24 -5.46,-12.72 -4.96,-19.46 1.19,-14.41 5.65,-28.52 4.91,-43.08 -3.48,-2.62 -8.83,-4.09 -13.07,-2.62 z"
         inkscape:connector-curvature="0"
         style="fill:#ffffff" />
      <path
         id="path3170"
         d="m 128.38,502.76 c -0.81,-3.36 2.95,-4.89 5.68,-4.78 -0.37,2.13 -0.63,4.4 -1.81,6.28 -1.29,1.19 -4.01,0.58 -3.87,-1.5 z"
         inkscape:connector-curvature="0"
         style="fill:#ffffff" />
      <path
         id="path3172"
         d="m 849.4,518.36 c 4.24,-1.47 9.59,0 13.07,2.62 0.74,14.56 -3.72,28.67 -4.91,43.08 -0.5,6.74 0.21,14.22 4.96,19.46 4.05,4.42 9.94,6.67 15.73,7.73 17.24,2.15 34.69,-1.74 50.49,-8.6 7.41,-3.4 14.89,-7.36 20.27,-13.64 3.74,-4.28 4.29,-10.42 3.51,-15.82 -1.26,-6.95 -7.32,-11.82 -13.59,-14.25 -13.34,-5.32 -27.9,-5.7 -41.99,-7.3 -9.58,-0.92 -19.42,-1.68 -28.44,-5.26 -0.11,-0.33 -0.33,-1 -0.44,-1.34 17.99,-7.14 38.19,-7.76 56.9,-3.25 12.14,3.19 24.51,8.73 32.21,19.04 7.95,10.28 7.83,25.13 1.99,36.36 -6.24,9.76 -17.26,15.05 -27.86,18.73 -16.12,5.43 -33.33,7.4 -50.28,6.5 -11.45,-0.97 -23.3,-2.99 -33.14,-9.28 -2.07,-0.86 -1.67,-3.29 -1.87,-5.07 -1.24,-21.89 -4.04,-44.27 1.26,-65.85 0.45,-1.35 0.55,-3.32 2.13,-3.86 z"
         inkscape:connector-curvature="0"
         style="fill:#000000" />
      <path
         id="path3174"
         d="m 117.95,524.97 c 1.59,-1.26 3.42,-2.16 5.42,-2.56 -1.49,20.74 -6.38,41.13 -13.17,60.74 -13.41,38.75 -35.33,73.96 -47.95,113.01 -3.08,9.24 -5.61,18.66 -7.61,28.19 -1.08,-2.59 -1.27,-5.41 -1.7,-8.14 -3.39,-23.12 -3.78,-46.83 0.67,-69.83 3.97,-20.89 12.09,-41.05 24.26,-58.52 3.52,-5.07 8.92,-8.58 11.94,-14.04 5.68,-9.83 2.51,-22.16 8.01,-32.04 4.62,-7.73 13.03,-11.77 20.13,-16.81 z"
         inkscape:connector-curvature="0"
         style="fill:#ffffff" />
      <path
         id="path3176"
         d="m 393.8,540.81 c 12.75,-8.24 28.25,-10.93 43.2,-11.11 19.39,0.48 39.46,5.16 55.07,17.18 9.68,7.3 16.83,18.72 16.95,31.08 0.57,11.22 -3.73,22.03 -9.43,31.48 -8.89,-0.13 -17.68,1.34 -26.57,1.26 -13.29,1.26 -26.67,0.87 -40,0.89 -15.28,-0.71 -30.82,-2.04 -45.25,-7.48 -2.5,-1.05 -5.15,-1.92 -7.36,-3.52 -4.52,-10.1 -6.49,-21.54 -4.94,-32.55 1.7,-11.23 8.77,-21.24 18.33,-27.23 m 29.6,0.72 c -8.72,0.89 -17.53,3.13 -24.97,7.91 -5.35,3.39 -9.48,8.86 -10.6,15.16 -1.98,9.23 1.78,18.46 6.25,26.36 1.02,1.47 1.64,3.76 3.72,3.97 27.17,6.75 55.36,8.32 83.25,7.27 1.8,-0.32 4.22,-0.1 5.21,-2 4.63,-6.21 8.53,-13.35 9.16,-21.21 0.63,-7.1 -2.35,-14.12 -7.09,-19.31 -8.16,-8.51 -19.49,-13.13 -30.74,-15.93 -11.19,-2.44 -22.78,-3.78 -34.19,-2.22 z"
         inkscape:connector-curvature="0"
         style="fill:#000000" />
      <path
         id="path3178"
         d="m 423.4,541.53 c 11.41,-1.56 23,-0.22 34.19,2.22 11.25,2.8 22.58,7.42 30.74,15.93 4.74,5.19 7.72,12.21 7.09,19.31 -0.63,7.86 -4.53,15 -9.16,21.21 -0.99,1.9 -3.41,1.68 -5.21,2 -27.89,1.05 -56.08,-0.52 -83.25,-7.27 -2.08,-0.21 -2.7,-2.5 -3.72,-3.97 -4.47,-7.9 -8.23,-17.13 -6.25,-26.36 1.12,-6.3 5.25,-11.77 10.6,-15.16 7.44,-4.78 16.25,-7.02 24.97,-7.91 z"
         inkscape:connector-curvature="0"
         style="fill:#ffffff" />
      <path
         id="path3180"
         d="m 586.56,765.44 c 4.52,-2.93 10.54,-2.5 15.39,-0.52 -20.36,41.5 -41.31,83.31 -70.79,119.23 -1.4,1.97 -3.53,3.54 -4.33,5.85 -0.19,8.47 -0.21,17.57 -4.76,25.04 -3.43,5.53 -10.18,7.82 -16.43,7.55 0.47,-15.08 5.27,-29.87 13.4,-42.55 6.85,-11.01 15.72,-20.56 23.17,-31.14 -0.22,-5.58 -0.74,-11.51 2,-16.64 6.13,-12.77 20.49,-18.34 28.28,-29.79 8.01,-10.98 6.32,-25.91 14.07,-37.03 z"
         inkscape:connector-curvature="0"
         style="fill:#000000" />
      <path
         id="path3182"
         d="m 750.39,814.96 c 1.46,-2.14 3.69,-3.66 5.25,-5.75 7.81,12.85 15.98,25.6 21.56,39.64 8.21,19.57 10.77,42.3 3,62.43 -0.4,-5.28 0.08,-10.6 -0.86,-15.83 -1.94,-13.92 -8.44,-26.57 -14.93,-38.83 -6.9,-12.97 -12.97,-26.83 -14.02,-41.66 z"
         inkscape:connector-curvature="0"
         style="fill:#000000" />
      <path
         id="path3184"
         d="m 685.97,915.99 c 6.5,-5.97 15.32,-8.94 24.03,-9.4 4.85,0.16 10.17,1.05 13.72,4.68 2.9,2.54 4.08,6.34 4.99,9.96 -4.18,3.04 -9.44,2.05 -13.8,0.04 -4.2,-1.79 -8.33,-3.95 -12.9,-4.54 -3.06,-0.35 -5.75,1.44 -8.02,3.25 0.39,5.84 -0.48,11.68 -2.23,17.26 -4.2,-1.65 -8.31,-4.59 -9.99,-8.92 -1.69,-4.52 0.94,-9.28 4.2,-12.33 z"
         inkscape:connector-curvature="0"
         style="fill:#000000" />
      <path
         id="path3186"
         d="m 616.65,908.91 c 12.16,-1.37 25.37,0.55 35.34,8.08 5.91,4.43 9.46,11.7 8.93,19.12 -11.3,-4 -21.02,-11.54 -32.43,-15.33 -2.82,-0.83 -5.95,-2.4 -8.84,-1.03 -5.29,2.37 -10.7,5.22 -16.67,5.02 -3.23,0.1 -6.97,-0.84 -8.77,-3.72 4.8,-7.62 13.9,-10.95 22.44,-12.14 z"
         inkscape:connector-curvature="0"
         style="fill:#000000" />
      <path
         id="path3188"
         d="m 374.03,977.64 c 6.49,1.17 11.55,-4.42 17.93,-3.96 3.3,3.12 3.72,9.34 0.74,12.97 -4.72,6 -12.84,7.6 -18.1,12.95 -3.08,4.02 -2.63,9.53 -5.17,13.83 -7.19,12.18 -21.19,18.92 -26.88,32.17 -1.9,3.64 -1.79,7.97 -3.32,11.68 -15.45,18.28 -33.15,35.19 -44.13,56.77 -6.81,12.72 -9.38,27.04 -13.3,40.79 -2.79,9.61 -6.3,19.35 -12.92,27.04 -3.07,3.33 -6.36,6.7 -10.61,8.5 -1.23,-6.56 -0.38,-13.43 2.84,-19.31 4.48,-8.61 11.27,-16.86 10.9,-27.1 0.21,-3.39 -2.07,-6.96 -0.09,-10.08 28.25,-55.7 68.31,-104.02 102.11,-156.25 z"
         inkscape:connector-curvature="0"
         style="fill:#000000" />
      <path
         id="path3190"
         d="m 473.38,1091.55 c 10.07,-2.14 20.37,-3.83 30.69,-3.26 7.58,0.47 14.41,4.16 20.85,7.9 8.46,5.15 18.44,6.82 28.09,8.29 35.47,4.68 70.8,-6.15 106.3,-2.61 12.9,1.4 25.59,5.34 36.64,12.2 15.59,9.62 28.97,22.26 42.4,34.59 24.56,23.14 51.69,43.6 74.14,68.92 1.53,1.3 -0.31,2.7 -1.1,3.81 -6.65,7.13 -17.35,8.82 -23.45,16.59 -4.25,5.31 -4.19,12.58 -2.93,18.94 -13.61,17.18 -31.44,30.24 -49.06,42.98 -14.07,9.71 -26.78,21.17 -39.64,32.39 -15.98,13.89 -32.95,27.24 -52.7,35.34 -17.2,7.3 -35.99,10.19 -54.59,10.18 -28.98,0.36 -57.97,-2.27 -86.93,-0.38 -24.39,1.66 -48.59,6.02 -73.09,5.88 -12.66,-0.11 -25.37,0.49 -37.97,-1.15 -8.78,-1.14 -17.88,-2.86 -25.32,-7.97 -10.2,-6.91 -18.52,-16.13 -28.15,-23.75 -12.26,-10.17 -28.18,-15.09 -39.43,-26.57 -7.26,-7.16 -13.88,-15 -19.6,-23.43 -5.02,-7.23 -8.72,-15.45 -9.73,-24.25 -3.48,-24.34 4.73,-48.31 13.88,-70.49 1.39,-2.84 1.84,-6.49 4.77,-8.24 13.79,-9.52 25.61,-22.25 41.42,-28.6 6.68,-3.16 14.46,-1.74 21.19,-4.72 6.86,-3.03 12.75,-7.8 18.51,-12.52 13.17,-11.38 27.29,-21.6 41.62,-31.44 19.22,-13.04 40.4,-23.62 63.19,-28.63 m -17.59,16.41 c -27.65,11.12 -47.75,34.62 -74.38,47.54 -5.3,2.73 -11,4.46 -16.61,6.38 -2.62,3.77 -0.17,11.31 -5.58,13.47 -9.76,2.45 -19.53,5.09 -28.79,9.12 -15.9,6.64 -30.67,17.33 -39.58,32.34 -10.35,16.98 -12.7,37.57 -11.56,57.08 -0.1,1.27 0.96,2.18 1.66,3.14 13.48,15.6 25.18,32.67 39.05,47.96 12.36,13.88 26.73,26.37 43.63,34.4 15.56,7.7 33.06,11.03 50.37,10.69 28.31,-0.38 55.83,-7.89 83.82,-11.21 40.92,-4.75 82.09,0.63 123.11,-1.48 19.08,-1.26 39.15,-4.04 55.19,-15.27 7.57,-5.15 10.94,-13.94 15.56,-21.43 4.83,-8.16 13.33,-12.97 21.13,-17.85 6.15,-3.67 12.14,-7.71 17.18,-12.84 7.42,-6.78 14.45,-14.58 24.06,-18.23 -0.91,-7.07 -1.19,-14.71 2.71,-21.01 8.07,-13.34 25.24,-17.31 33.51,-30.45 1.79,-2.03 -0.54,-4.28 -1.54,-6.06 -5.32,-7.33 -12.49,-13.29 -16.38,-21.63 -17.16,-7.27 -30.31,-20.8 -43.72,-33.26 -11.85,-11.09 -25.7,-20.93 -41.82,-24.4 -0.86,-4.26 -1.36,-9.11 -4.27,-12.48 -13.16,-5.67 -27.42,-8.45 -41.63,-9.9 -27.12,-2.44 -54.42,-0.69 -81.43,2.2 -11.69,1.08 -23.76,2.69 -35.2,-0.82 -10.91,-3.64 -20.49,-11.22 -32.27,-12.12 -12.33,-0.79 -24.78,1.55 -36.22,6.12 z"
         inkscape:connector-curvature="0"
         style="fill:#000000" />
      <path
         id="path3192"
         d="m 455.79,1107.96 c 11.44,-4.57 23.89,-6.91 36.22,-6.12 11.78,0.9 21.36,8.48 32.27,12.12 11.44,3.51 23.51,1.9 35.2,0.82 27.01,-2.89 54.31,-4.64 81.43,-2.2 14.21,1.45 28.47,4.23 41.63,9.9 2.91,3.37 3.41,8.22 4.27,12.48 16.12,3.47 29.97,13.31 41.82,24.4 13.41,12.46 26.56,25.99 43.72,33.26 3.89,8.34 11.06,14.3 16.38,21.63 1,1.78 3.33,4.03 1.54,6.06 -8.27,13.14 -25.44,17.11 -33.51,30.45 -3.9,6.3 -3.62,13.94 -2.71,21.01 -9.61,3.65 -16.64,11.45 -24.06,18.23 -5.04,5.13 -11.03,9.17 -17.18,12.84 -7.8,4.88 -16.3,9.69 -21.13,17.85 -4.62,7.49 -7.99,16.28 -15.56,21.43 -16.04,11.23 -36.11,14.01 -55.19,15.27 -41.02,2.11 -82.19,-3.27 -123.11,1.48 -27.99,3.32 -55.51,10.83 -83.82,11.21 -17.31,0.34 -34.81,-2.99 -50.37,-10.69 -16.9,-8.03 -31.27,-20.52 -43.63,-34.4 -13.87,-15.29 -25.57,-32.36 -39.05,-47.96 -0.7,-0.96 -1.76,-1.87 -1.66,-3.14 -1.14,-19.51 1.21,-40.1 11.56,-57.08 8.91,-15.01 23.68,-25.7 39.58,-32.34 9.26,-4.03 19.03,-6.67 28.79,-9.12 5.41,-2.16 2.96,-9.7 5.58,-13.47 5.61,-1.92 11.31,-3.65 16.61,-6.38 26.63,-12.92 46.73,-36.42 74.38,-47.54 m -22.8,63.04 c -14.68,5.93 -28.12,16.04 -35.63,30.24 -11.67,2.75 -20.6,11.16 -29.58,18.55 -7.12,5.89 -15.51,10.57 -24.76,11.89 -3.68,0.15 -2.62,4.81 -3.21,7.31 -1.4,14.91 5.75,28.5 9.74,42.43 18.55,10.03 34.92,23.56 53.36,33.77 15.9,8.99 33.53,15.11 51.74,16.95 19.17,1.93 38.49,0.23 57.54,-2.12 27.62,-3.73 54.76,-10.48 81.39,-18.61 21.43,-6.98 43.67,-11.23 64.94,-18.73 13.36,-4.85 26.87,-10.87 36.88,-21.27 7.63,-7.78 12.09,-18.55 12.1,-29.45 -0.49,-3.69 2.74,-6.23 5.48,-8.01 8.87,-5.05 19.82,-4.21 28.69,-9.25 4.12,-2.26 5.3,-7.39 5.11,-11.74 -0.32,-6.36 -4.11,-11.91 -8.44,-16.31 -8.14,-8.47 -18.56,-14.11 -27.97,-20.96 -5.93,-4.34 -9.12,-11.91 -16.02,-14.94 -7.1,-1.44 -14.21,1.26 -21.34,1.36 -41.39,0.87 -82.66,-2.86 -124.01,-3.91 -15.01,-0.03 -30.02,-0.16 -45.02,0.07 -24.02,1.16 -48.55,3.49 -70.99,12.73 z"
         inkscape:connector-curvature="0"
         style="fill:#ffffff" />
      <path
         id="path3194"
         d="m 432.99,1171 c 22.44,-9.24 46.97,-11.57 70.99,-12.73 15,-0.23 30.01,-0.1 45.02,-0.07 41.35,1.05 82.62,4.78 124.01,3.91 7.13,-0.1 14.24,-2.8 21.34,-1.36 6.9,3.03 10.09,10.6 16.02,14.94 9.41,6.85 19.83,12.49 27.97,20.96 4.33,4.4 8.12,9.95 8.44,16.31 0.19,4.35 -0.99,9.48 -5.11,11.74 -8.87,5.04 -19.82,4.2 -28.69,9.25 -2.74,1.78 -5.97,4.32 -5.48,8.01 -0.01,10.9 -4.47,21.67 -12.1,29.45 -10.01,10.4 -23.52,16.42 -36.88,21.27 -21.27,7.5 -43.51,11.75 -64.94,18.73 -26.63,8.13 -53.77,14.88 -81.39,18.61 -19.05,2.35 -38.37,4.05 -57.54,2.12 -18.21,-1.84 -35.84,-7.96 -51.74,-16.95 -18.44,-10.21 -34.81,-23.74 -53.36,-33.77 -3.99,-13.93 -11.14,-27.52 -9.74,-42.43 0.59,-2.5 -0.47,-7.16 3.21,-7.31 9.25,-1.32 17.64,-6 24.76,-11.89 8.98,-7.39 17.91,-15.8 29.58,-18.55 7.51,-14.2 20.95,-24.31 35.63,-30.24 m 189.55,-0.3 c -2.17,11.65 -2.56,24.2 1.18,35.55 3.53,1.88 7.58,2.54 11.51,3.12 23.79,2.53 46.28,-11.37 70.14,-6.91 -0.64,0.95 -1.29,1.94 -2.24,2.63 -9.06,7.07 -20,11.28 -31.06,14.08 -21.94,5.36 -44.62,6.25 -67.07,7.76 -22.11,1.53 -44.55,2.77 -65.83,9.43 -0.88,0.32 -1.74,0.32 -2.59,0 -21.05,-7.65 -43.54,-9.54 -65.56,-12.7 -20.19,-2.84 -40.88,-6.19 -58.96,-16.19 -18.68,10.45 -35.52,24.57 -56.08,31.42 -1.76,0.74 -3.87,0.88 -5.33,2.2 -1.12,11.73 2.55,24.04 10.37,32.93 3.57,4.1 9.1,7.69 14.73,5.9 5.95,-1.92 8.65,-8.13 11.11,-13.33 -6.83,-2.56 -14.61,-2.59 -20.84,-6.67 -2.74,-1.68 -3.29,-4.97 -3.11,-7.92 8.62,-4.52 18.63,-2.33 27.71,-0.72 17.38,3.95 35.6,1.35 52.83,6.12 9.29,2.31 14.6,11.13 22.83,15.35 11.48,5.94 24.2,8.94 36.85,11.21 22.54,3.88 45.43,5.01 68.15,7.43 11.94,1.3 23.64,5.78 35.77,4.49 9.11,-1.78 17.72,-5.43 26.61,-8.01 16.28,-5.06 33.67,-9.81 46.35,-21.87 9.22,-8.61 13.18,-21.49 12.84,-33.86 9.04,-1.72 17.99,-6.22 23.43,-13.85 4.2,-5.72 4.65,-13.71 1.61,-20.04 -3.5,-7.75 -10.17,-13.5 -17.28,-17.87 -15.02,-8.92 -32.32,-13.87 -49.74,-14.69 -9.58,-0.19 -19.71,0.45 -28.33,5.01 m -135.36,-1.49 c -2.84,14 0.75,28.24 -1.06,42.32 8.79,3.01 17.33,6.87 26.5,8.65 8.35,1.82 17.03,1.58 25.37,-0.15 -0.3,-16.03 0.81,-32.04 2.23,-47.99 -1.92,-1.85 -4.84,-2.23 -7.3,-3.07 -15.05,-3.59 -30.56,-0.82 -45.74,0.24 m 62.1,1.19 c -0.99,1.27 -0.36,3.06 -0.55,4.57 0.28,15.02 -1.17,30.13 1.16,45.06 18.87,0.95 38.46,3.67 56.78,-2.4 1.98,-15.32 0.86,-30.83 2.25,-46.2 -8.62,-3.09 -17.78,-4.61 -26.93,-4.29 -10.97,-0.27 -22.08,0.31 -32.71,3.26 m -88.38,-0.39 c -9.79,1.32 -18.14,7.16 -25.58,13.29 -5.52,4.7 -11.22,9.16 -17.02,13.5 4.96,2.65 10.14,4.94 15.61,6.33 14.32,3.82 29.11,5.34 43.67,7.95 -0.22,-13.18 0.01,-26.35 -0.12,-39.52 -5.39,-1.39 -11,-2.56 -16.56,-1.55 m -60.84,101.09 c -5.34,2.8 -10.2,7.65 -11.14,13.82 15.21,13.3 30.91,27.59 50.86,33.11 1.86,-1.23 3.68,-2.6 6.04,-2.49 2.92,-12.51 3.46,-25.58 8.2,-37.63 -0.12,-0.34 -0.36,-1.04 -0.48,-1.38 -5.91,-5.8 -14.17,-8.52 -22.21,-9.7 -10.51,-1.41 -21.72,-0.66 -31.27,4.27 m 66.26,13.81 c -2.32,10.42 -5.64,21.24 -2.77,31.93 4.4,1.07 8.95,1.38 13.47,1.5 10.82,0.11 21.64,-0.25 32.46,-0.37 0.23,-3.87 0.72,-8.07 3.44,-11.05 1.68,-2.04 5.08,-3.18 7.07,-0.9 2.88,3.12 3.99,7.4 6.21,10.96 10.72,-4.37 22.67,-0.64 33.54,-4.19 3.69,-1.13 6.15,-4.62 6.45,-8.39 -33.95,-2.01 -67.85,-7.83 -99.87,-19.49 z"
         inkscape:connector-curvature="0"
         style="fill:#000000" />
      <path
         id="path3196"
         d="m 846.21,1162.94 c 3.54,-1.33 7.68,-2.47 11.18,-0.35 6.07,3.46 9.03,10.24 11.67,16.39 8.46,22.44 16,45.79 16.2,70.02 0.39,16.57 -2.85,34.49 -14.29,47.16 5.15,-20.13 5.45,-41.27 2.35,-61.75 -2.25,-14.46 -6.27,-28.73 -12.9,-41.81 -4.79,-9.85 -11.09,-19.07 -14.21,-29.66 z"
         inkscape:connector-curvature="0"
         style="fill:#000000" />
      <path
         id="path3198"
         d="m 622.54,1170.7 c 8.62,-4.56 18.75,-5.2 28.33,-5.01 17.42,0.82 34.72,5.77 49.74,14.69 7.11,4.37 13.78,10.12 17.28,17.87 3.04,6.33 2.59,14.32 -1.61,20.04 -5.44,7.63 -14.39,12.13 -23.43,13.85 0.34,12.37 -3.62,25.25 -12.84,33.86 -12.68,12.06 -30.07,16.81 -46.35,21.87 -8.89,2.58 -17.5,6.23 -26.61,8.01 -12.13,1.29 -23.83,-3.19 -35.77,-4.49 -22.72,-2.42 -45.61,-3.55 -68.15,-7.43 -12.65,-2.27 -25.37,-5.27 -36.85,-11.21 -8.23,-4.22 -13.54,-13.04 -22.83,-15.35 -17.23,-4.77 -35.45,-2.17 -52.83,-6.12 -9.08,-1.61 -19.09,-3.8 -27.71,0.72 -0.18,2.95 0.37,6.24 3.11,7.92 6.23,4.08 14.01,4.11 20.84,6.67 -2.46,5.2 -5.16,11.41 -11.11,13.33 -5.63,1.79 -11.16,-1.8 -14.73,-5.9 -7.82,-8.89 -11.49,-21.2 -10.37,-32.93 1.46,-1.32 3.57,-1.46 5.33,-2.2 20.56,-6.85 37.4,-20.97 56.08,-31.42 18.08,10 38.77,13.35 58.96,16.19 22.02,3.16 44.51,5.05 65.56,12.7 0.85,0.32 1.71,0.32 2.59,0 21.28,-6.66 43.72,-7.9 65.83,-9.43 22.45,-1.51 45.13,-2.4 67.07,-7.76 11.06,-2.8 22,-7.01 31.06,-14.08 0.95,-0.69 1.6,-1.68 2.24,-2.63 -23.86,-4.46 -46.35,9.44 -70.14,6.91 -3.93,-0.58 -7.98,-1.24 -11.51,-3.12 -3.74,-11.35 -3.35,-23.9 -1.18,-35.55 z"
         inkscape:connector-curvature="0"
         style="fill:#ffffff" />
      <path
         id="path3200"
         d="m 487.18,1169.21 c 15.18,-1.06 30.69,-3.83 45.74,-0.24 2.46,0.84 5.38,1.22 7.3,3.07 -1.42,15.95 -2.53,31.96 -2.23,47.99 -8.34,1.73 -17.02,1.97 -25.37,0.15 -9.17,-1.78 -17.71,-5.64 -26.5,-8.65 1.81,-14.08 -1.78,-28.32 1.06,-42.32 z"
         inkscape:connector-curvature="0"
         style="fill:#ffffff" />
      <path
         id="path3202"
         d="m 549.28,1170.4 c 10.63,-2.95 21.74,-3.53 32.71,-3.26 9.15,-0.32 18.31,1.2 26.93,4.29 -1.39,15.37 -0.27,30.88 -2.25,46.2 -18.32,6.07 -37.91,3.35 -56.78,2.4 -2.33,-14.93 -0.88,-30.04 -1.16,-45.06 0.19,-1.51 -0.44,-3.3 0.55,-4.57 z"
         inkscape:connector-curvature="0"
         style="fill:#ffffff" />
      <path
         id="path3204"
         d="m 460.9,1170.01 c 5.56,-1.01 11.17,0.16 16.56,1.55 0.13,13.17 -0.1,26.34 0.12,39.52 -14.56,-2.61 -29.35,-4.13 -43.67,-7.95 -5.47,-1.39 -10.65,-3.68 -15.61,-6.33 5.8,-4.34 11.5,-8.8 17.02,-13.5 7.44,-6.13 15.79,-11.97 25.58,-13.29 z"
         inkscape:connector-curvature="0"
         style="fill:#ffffff" />
      <path
         id="path3206"
         d="m 400.06,1271.1 c 9.55,-4.93 20.76,-5.68 31.27,-4.27 8.04,1.18 16.3,3.9 22.21,9.7 0.12,0.34 0.36,1.04 0.48,1.38 -4.74,12.05 -5.28,25.12 -8.2,37.63 -2.36,-0.11 -4.18,1.26 -6.04,2.49 -19.95,-5.52 -35.65,-19.81 -50.86,-33.11 0.94,-6.17 5.8,-11.02 11.14,-13.82 z"
         inkscape:connector-curvature="0"
         style="fill:#ffffff" />
      <path
         id="path3208"
         d="m 466.32,1284.91 c 32.02,11.66 65.92,17.48 99.87,19.49 -0.3,3.77 -2.76,7.26 -6.45,8.39 -10.87,3.55 -22.82,-0.18 -33.54,4.19 -2.22,-3.56 -3.33,-7.84 -6.21,-10.96 -1.99,-2.28 -5.39,-1.14 -7.07,0.9 -2.72,2.98 -3.21,7.18 -3.44,11.05 -10.82,0.12 -21.64,0.48 -32.46,0.37 -4.52,-0.12 -9.07,-0.43 -13.47,-1.5 -2.87,-10.69 0.45,-21.51 2.77,-31.93 z"
         inkscape:connector-curvature="0"
         style="fill:#ffffff" />
      <path
         id="path3210"
         d="m 218.89,1324.11 c 2.45,-3.19 5.88,-5.94 10.12,-5.78 9.17,0.12 16.9,5.8 24.67,9.99 1.82,0.7 1.76,2.91 2.41,4.48 4.36,15.7 14.41,28.99 25.37,40.73 10.88,11.89 22.71,23.35 30.13,37.87 9.89,3.17 21.15,5.51 28.06,13.94 2.27,2.39 2.66,5.97 4.6,8.46 9.19,3.04 19.28,1.34 28.48,4.47 2.04,0.75 4.24,1.86 5.15,3.98 1.38,3.85 -0.53,8.91 -4.61,10.19 -5.08,1.43 -10.39,0 -15.32,-1.34 -9.43,-2.84 -18.48,-6.91 -28.08,-9.11 -2.46,-5.99 -5.63,-11.98 -11.01,-15.84 -5.63,-4.4 -12.69,-6.14 -19.59,-7.27 -4.67,-5.11 -8.31,-11.15 -12.53,-16.65 -20.12,-28.01 -40.29,-56.83 -67.85,-78.12 z"
         inkscape:connector-curvature="0"
         style="fill:#000000" />
      <path
         id="path3212"
         d="m 226.14,1421.36 c 7.42,-0.79 13.89,3.89 19.79,7.74 15.96,11.85 27.76,28.39 43.8,40.15 7.54,5.52 16.07,9.89 25.29,11.7 20.52,3.8 41.32,-0.52 61.94,-0.7 54.03,-0.18 108.02,1.8 162.04,2.26 12,-0.16 23.99,0.43 36,0.25 52.18,-0.46 104.59,-0.15 156.42,-7.1 21.45,-3.06 42.96,-7.17 63.12,-15.31 12.19,-4.74 22.56,-13 34.38,-18.49 15.08,-6.65 31.18,-10.79 45.96,-18.18 -2.94,9.62 -9.85,17.54 -18.06,23.14 -13.43,9.03 -29.26,13.43 -44.78,17.35 -21.2,5.26 -42.96,8.63 -63.55,16.15 -9.32,3.25 -15.03,12.73 -24.74,15.17 -9.43,2.02 -19.15,1.84 -28.74,2.26 -27.37,0.07 -54.65,-2.45 -81.99,-3.45 -26.66,-0.8 -53.33,0.1 -79.99,0.25 -27.67,0.59 -55.35,0.8 -83.03,0.7 -24.69,0.18 -49.36,-1 -74.03,-1.72 -22.68,-0.23 -45.51,0.7 -68.04,-2.55 -8.75,-1.41 -17.76,-3.42 -24.96,-8.9 -10.73,-7.89 -18.35,-19.06 -27.88,-28.22 -5.55,-5.28 -12.08,-9.94 -19.74,-11.44 -2.02,-7.48 -7.58,-13.4 -9.21,-21.06 z"
         inkscape:connector-curvature="0"
         style="fill:#000000" />
    </g>
    <path
       style="fill:#ffffff;stroke:#000000;stroke-width:1.77165354;stroke-miterlimit:4;stroke-opacity:1;stroke-dasharray:none"
       d="m 180.5,763.35974 207,0 c 14.127,0 25.5,11.373 25.5,25.5 l 0,38 c 0,14.127 -11.373,25.5 -25.5,25.5 l -84.5,0 c -119.82363,106.52313 -105.02131,128.9103 -43,0 l -78.5,-1 c -14.12585,-0.17995 -35.27929,4.62528 -35.5,-9.5 l -1,-64 c -0.22071,-14.12528 14.6699,-14.5 35.5,-14.5 z"
       id="rect3256"
       inkscape:connector-curvature="0"
       sodipodi:nodetypes="sssssccssss" />
  </g>
</svg>
